<svg width="34" height="27" viewBox="0 0 34 27" xmlns="http://www.w3.org/2000/svg">
<path d="M10.8044 4.13885C11.2217 4.13885 11.5599 3.80058 11.5599 3.3833C11.5599 2.96602 11.2217 2.62775 10.8044 2.62775C10.3871 2.62775 10.0488 2.96602 10.0488 3.3833C10.0488 3.80058 10.3871 4.13885 10.8044 4.13885Z"></path>
<path d="M26.1238 18.1344L26.4069 14.3756L25.0885 14.2762L24.8775 17.0767L22.5726 15.1205L15.6279 15.2037V13.8876C16.233 13.8558 16.8267 13.7259 17.3965 13.4989C18.0309 13.2462 18.6025 12.8877 19.0989 12.4319L29.0178 12.0953L26.1818 10.7163C19.7256 7.40978 15.5585 2.89581 15.1021 2.38932C14.6791 1.91993 13.6536 0.802106 13.2656 0.561552C12.673 0.194165 11.9928 0 11.2985 0C10.8026 0 10.3163 0.0982214 9.85327 0.291942C8.68333 0.781328 7.8765 1.82749 7.63984 3.01342L5.95402 4.49219L7.84223 5.13297C8.024 5.5808 8.28989 5.99002 8.62622 6.33474C8.76061 6.47246 9.174 6.82518 9.84094 7.38501C9.66699 8.39356 9.77455 9.42233 10.1579 10.3846C10.8779 12.1919 12.447 13.4568 14.3058 13.8011V15.2194L7.33312 15.3029C7.48878 14.1632 7.2604 12.9942 6.66496 11.9482C5.95041 10.6927 4.81436 9.79932 3.46631 9.43271L2.83148 9.26005L2.6557 9.89404C2.28249 11.2403 2.47059 12.6732 3.18515 13.9287C3.47575 14.4393 3.83692 14.8887 4.25275 15.2683C2.32337 15.6826 0.69244 17.1523 0.172554 19.0639L0 19.6988L0.633996 19.8746C1.07749 19.9975 1.53732 20.0599 2.00065 20.0599C4.21458 20.0599 6.24951 18.6435 7.02501 16.6289L16.9877 16.5096L15.6358 17.9367C15.0438 17.7077 14.417 17.5899 13.7656 17.5899C11.6915 17.5899 9.7866 18.7664 8.91272 20.5872L8.62805 21.1803L9.21972 21.4679C9.92427 21.8103 10.6859 21.9839 11.4835 21.9839C12.4962 21.9839 13.4682 21.7029 14.2998 21.2038C14.269 21.5961 14.279 21.9962 14.3346 22.3992C14.5321 23.8303 15.2552 25.0816 16.371 25.9224L16.8964 26.3183L17.2949 25.7949C18.1412 24.6834 18.4985 23.2831 18.3012 21.852C18.132 20.6261 17.5761 19.533 16.7191 18.716L18.8302 16.4876L22.0942 16.4485L33.1443 25.8272L34 24.8191L26.1238 18.1344ZM11.3862 9.89521C11.0538 9.06088 10.9931 8.16145 11.2106 7.29406L11.3112 6.89318L10.8284 6.48757C10.5192 6.22824 9.69788 5.53957 9.57244 5.41119C9.27994 5.11141 9.06933 4.7348 8.9635 4.32208C8.66978 3.1767 9.27177 1.96849 10.3636 1.51177C10.6642 1.38599 10.9788 1.32221 11.2986 1.32221C11.7465 1.32221 12.1859 1.44782 12.5625 1.6811C12.6681 1.75421 13.1879 2.23993 14.1222 3.27681C14.5507 3.75242 18.1687 7.67289 23.8433 10.9477L18.5379 11.1278L18.353 11.3148C17.9423 11.7304 17.4559 12.0519 16.9072 12.2704C16.4023 12.4715 15.8736 12.5734 15.3356 12.5734C13.5846 12.5735 12.0343 11.5223 11.3862 9.89521ZM10.4834 20.5335C11.2306 19.5305 12.4519 18.912 13.7656 18.912C14.1095 18.912 14.4438 18.955 14.7657 19.0402C14.0185 20.0431 12.7972 20.6617 11.4834 20.6617C11.1397 20.6617 10.8054 20.6187 10.4834 20.5335ZM16.9912 22.0326C17.1031 22.8434 16.9715 23.6628 16.6273 24.3686C16.1049 23.7823 15.7563 23.0292 15.6444 22.2184C15.5326 21.4077 15.6641 20.5883 16.0084 19.8824C16.5308 20.4688 16.8794 21.2219 16.9912 22.0326ZM3.80497 10.9705C4.50775 11.3209 5.11102 11.8909 5.51591 12.6022C5.92079 13.3135 6.10279 14.1232 6.04518 14.9063C5.34241 14.5559 4.73914 13.986 4.33425 13.2746C3.92936 12.5633 3.74736 11.7538 3.80497 10.9705ZM2.00065 18.7377C1.9031 18.7377 1.80582 18.7339 1.70899 18.7265C2.37398 17.3872 3.80653 16.4728 5.35619 16.4728C5.45374 16.4728 5.55102 16.4766 5.64785 16.4839C4.98286 17.8233 3.5502 18.7377 2.00065 18.7377Z"></path>
</svg>
