<svg width="34" height="34" viewBox="0 0 34 34" xmlns="http://www.w3.org/2000/svg">
<path d="M17.2182 11.7951C15.3028 11.7951 13.75 13.5364 13.75 15.6844C13.75 17.8324 15.3027 19.5738 17.2182 19.5738C19.1336 19.5738 20.6864 17.8325 20.6864 15.6844C20.6864 13.5364 19.1337 11.7951 17.2182 11.7951ZM17.2182 17.7216C16.2149 17.7216 15.4015 16.8095 15.4015 15.6843C15.4015 14.5592 16.2149 13.6471 17.2182 13.6471C18.2215 13.6471 19.0349 14.5592 19.0349 15.6843C19.0349 16.8095 18.2215 17.7216 17.2182 17.7216Z"></path>
<path d="M31.0495 2.90519L8.50644 0.0345874C7.63152 -0.104906 6.74507 0.181525 6.0705 0.821742C5.396 1.40825 4.96364 2.27765 4.87315 3.22938L4.46031 7.0261H3.18031C1.36363 7.0261 0.00111578 8.83181 0.00111578 10.8691V29.8063C-0.0446411 31.749 1.32261 33.3656 3.05505 33.4169C3.09678 33.4181 3.13858 33.4184 3.18031 33.4178H25.8473C27.6639 33.4178 29.3155 31.8435 29.3155 29.8063V29.0655C29.8787 28.9434 30.413 28.6911 30.8844 28.3246C31.5533 27.693 31.9817 26.7986 32.0817 25.8244L33.981 7.0261C34.1746 4.98413 32.8679 3.14722 31.0495 2.90519ZM27.6639 29.8063C27.6639 30.8249 26.7556 31.5657 25.8473 31.5657H3.18031C2.35977 31.5927 1.67507 30.8687 1.65097 29.9485C1.64971 29.9011 1.65026 29.8537 1.65263 29.8063V26.38L8.05227 21.1017C8.82104 20.4397 9.90388 20.4986 10.6121 21.2405L15.1125 25.6854C15.7959 26.3289 16.6562 26.6887 17.5485 26.7041C18.2462 26.7136 18.9324 26.5053 19.5304 26.1021L27.664 20.8238V29.8063H27.6639ZM27.6639 18.6477L18.6632 24.5279C17.8903 25.0414 16.912 24.9484 16.2272 24.2964L11.6855 19.8052C10.3839 18.5509 8.48139 18.474 7.10259 19.62L1.65263 24.0649V10.8691C1.65263 9.85044 2.27197 8.87816 3.18031 8.87816H25.8473C26.8177 8.92327 27.6014 9.7822 27.6639 10.8691V18.6477ZM32.3311 6.77609C32.3305 6.78221 32.33 6.78841 32.3294 6.79453L30.3889 25.5928C30.3922 26.0803 30.194 26.5419 29.8521 26.843C29.687 27.0282 29.3154 27.1208 29.3154 27.2134V10.8691C29.2502 8.75975 27.7287 7.07387 25.8472 7.0261H6.11175L6.48334 3.4146C6.56394 2.94694 6.78198 2.52314 7.10267 2.21074C7.46478 1.92998 7.90259 1.79908 8.34135 1.84029L30.8432 4.75725C31.7511 4.85394 32.4173 5.75781 32.3311 6.77609Z"></path>
</svg>